<svg id="visual" viewBox="0 0 900 600" width="900" height="600" xmlns="http://www.w3.org/2000/svg" xmlns:xlink="http://www.w3.org/1999/xlink" version="1.1"><path d="M0 241L10.7 240C21.3 239 42.7 237 64.2 221C85.7 205 107.3 175 128.8 172C150.3 169 171.7 193 193 204C214.3 215 235.7 213 257 207C278.3 201 299.7 191 321.2 207C342.7 223 364.3 265 385.8 253C407.3 241 428.7 175 450 172C471.3 169 492.7 229 514.2 237C535.7 245 557.3 201 578.8 196C600.3 191 621.7 225 643 218C664.3 211 685.7 163 707 152C728.3 141 749.7 167 771.2 172C792.7 177 814.3 161 835.8 172C857.3 183 878.7 221 889.3 240L900 259L900 0L889.3 0C878.7 0 857.3 0 835.8 0C814.3 0 792.7 0 771.2 0C749.7 0 728.3 0 707 0C685.7 0 664.3 0 643 0C621.7 0 600.3 0 578.8 0C557.3 0 535.7 0 514.2 0C492.7 0 471.3 0 450 0C428.7 0 407.3 0 385.8 0C364.3 0 342.7 0 321.2 0C299.7 0 278.3 0 257 0C235.7 0 214.3 0 193 0C171.7 0 150.3 0 128.8 0C107.3 0 85.7 0 64.2 0C42.7 0 21.3 0 10.7 0L0 0Z" fill="#6198ff"></path><path d="M0 301L10.7 303C21.3 305 42.7 309 64.2 305C85.7 301 107.3 289 128.8 296C150.3 303 171.7 329 193 333C214.3 337 235.7 319 257 304C278.3 289 299.7 277 321.2 285C342.7 293 364.3 321 385.8 321C407.3 321 428.7 293 450 301C471.3 309 492.7 353 514.2 354C535.7 355 557.3 313 578.8 302C600.3 291 621.7 311 643 304C664.3 297 685.7 263 707 264C728.3 265 749.7 301 771.2 299C792.7 297 814.3 257 835.8 252C857.3 247 878.7 277 889.3 292L900 307L900 257L889.3 238C878.7 219 857.3 181 835.8 170C814.3 159 792.7 175 771.2 170C749.7 165 728.3 139 707 150C685.7 161 664.3 209 643 216C621.7 223 600.3 189 578.8 194C557.3 199 535.7 243 514.2 235C492.7 227 471.3 167 450 170C428.7 173 407.3 239 385.8 251C364.3 263 342.7 221 321.2 205C299.7 189 278.3 199 257 205C235.7 211 214.3 213 193 202C171.7 191 150.3 167 128.8 170C107.3 173 85.7 203 64.2 219C42.7 235 21.3 237 10.7 238L0 239Z" fill="#3c80ff"></path><path d="M0 355L10.7 366C21.3 377 42.7 399 64.2 393C85.7 387 107.3 353 128.8 353C150.3 353 171.7 387 193 392C214.3 397 235.7 373 257 360C278.3 347 299.7 345 321.2 358C342.7 371 364.3 399 385.8 398C407.3 397 428.7 367 450 371C471.3 375 492.7 413 514.2 411C535.7 409 557.3 367 578.8 362C600.3 357 621.7 389 643 391C664.3 393 685.7 365 707 363C728.3 361 749.7 385 771.2 384C792.7 383 814.3 357 835.8 356C857.3 355 878.7 379 889.3 391L900 403L900 305L889.3 290C878.7 275 857.3 245 835.8 250C814.3 255 792.7 295 771.2 297C749.7 299 728.3 263 707 262C685.7 261 664.3 295 643 302C621.7 309 600.3 289 578.8 300C557.3 311 535.7 353 514.2 352C492.7 351 471.3 307 450 299C428.7 291 407.3 319 385.8 319C364.3 319 342.7 291 321.2 283C299.7 275 278.3 287 257 302C235.7 317 214.3 335 193 331C171.7 327 150.3 301 128.8 294C107.3 287 85.7 299 64.2 303C42.7 307 21.3 303 10.7 301L0 299Z" fill="#0066ff"></path><path d="M0 403L10.7 424C21.3 445 42.7 487 64.2 482C85.7 477 107.3 425 128.8 412C150.3 399 171.7 425 193 444C214.3 463 235.7 475 257 475C278.3 475 299.7 463 321.2 466C342.7 469 364.3 487 385.8 474C407.3 461 428.7 417 450 418C471.3 419 492.7 465 514.2 469C535.7 473 557.3 435 578.8 428C600.3 421 621.7 445 643 449C664.3 453 685.7 437 707 435C728.3 433 749.7 445 771.2 447C792.7 449 814.3 441 835.8 453C857.3 465 878.7 497 889.3 513L900 529L900 401L889.3 389C878.7 377 857.3 353 835.8 354C814.3 355 792.7 381 771.2 382C749.7 383 728.3 359 707 361C685.7 363 664.3 391 643 389C621.7 387 600.3 355 578.8 360C557.3 365 535.7 407 514.2 409C492.7 411 471.3 373 450 369C428.7 365 407.3 395 385.8 396C364.3 397 342.7 369 321.2 356C299.7 343 278.3 345 257 358C235.7 371 214.3 395 193 390C171.7 385 150.3 351 128.8 351C107.3 351 85.7 385 64.2 391C42.7 397 21.3 375 10.7 364L0 353Z" fill="#0059dd"></path><path d="M0 601L10.7 601C21.3 601 42.7 601 64.2 601C85.7 601 107.3 601 128.8 601C150.3 601 171.7 601 193 601C214.3 601 235.7 601 257 601C278.3 601 299.7 601 321.2 601C342.7 601 364.3 601 385.8 601C407.3 601 428.7 601 450 601C471.3 601 492.7 601 514.2 601C535.7 601 557.3 601 578.8 601C600.3 601 621.7 601 643 601C664.3 601 685.7 601 707 601C728.3 601 749.7 601 771.2 601C792.7 601 814.3 601 835.8 601C857.3 601 878.7 601 889.3 601L900 601L900 527L889.3 511C878.7 495 857.3 463 835.8 451C814.3 439 792.7 447 771.2 445C749.7 443 728.3 431 707 433C685.7 435 664.3 451 643 447C621.7 443 600.3 419 578.8 426C557.3 433 535.7 471 514.2 467C492.7 463 471.3 417 450 416C428.7 415 407.3 459 385.8 472C364.3 485 342.7 467 321.2 464C299.7 461 278.3 473 257 473C235.7 473 214.3 461 193 442C171.7 423 150.3 397 128.8 410C107.3 423 85.7 475 64.2 480C42.7 485 21.3 443 10.7 422L0 401Z" fill="#004cbb"></path></svg>