<?xml version="1.0" encoding="UTF-8"?>
<svg xmlns="http://www.w3.org/2000/svg" xmlns:xlink="http://www.w3.org/1999/xlink" viewBox="0 0 1617.55 1078.37">
  <defs>
    <style>
      .cls-1 {
        opacity: .58;
      }

      .cls-1, .cls-2, .cls-3, .cls-4, .cls-5, .cls-6, .cls-7, .cls-8, .cls-9, .cls-10, .cls-11, .cls-12, .cls-13, .cls-14, .cls-15, .cls-16, .cls-17, .cls-18, .cls-19, .cls-20, .cls-21, .cls-22, .cls-23, .cls-24, .cls-25, .cls-26, .cls-27, .cls-28, .cls-29, .cls-30, .cls-31, .cls-32, .cls-33, .cls-34, .cls-35, .cls-36, .cls-37, .cls-38, .cls-39, .cls-40, .cls-41, .cls-42 {
        fill: none;
      }

      .cls-2 {
        opacity: .78;
      }

      .cls-3 {
        opacity: .81;
      }

      .cls-43, .cls-44, .cls-45, .cls-46, .cls-47 {
        fill: #fff;
      }

      .cls-4 {
        opacity: .67;
      }

      .cls-5 {
        opacity: .56;
      }

      .cls-6 {
        opacity: .14;
      }

      .cls-48 {
        letter-spacing: .07em;
      }

      .cls-7, .cls-44, .cls-8, .cls-45, .cls-46, .cls-47 {
        stroke: #fff;
        stroke-miterlimit: 10;
      }

      .cls-49 {
        letter-spacing: .05em;
      }

      .cls-44, .cls-45, .cls-46, .cls-47 {
        font-family: MyriadPro-Regular, 'Myriad Pro';
        font-size: 186.69px;
        stroke-width: 3px;
      }

      .cls-8 {
        stroke-width: 1.3px;
      }

      .cls-9 {
        mix-blend-mode: overlay;
      }

      .cls-10 {
        opacity: .97;
      }

      .cls-11 {
        opacity: .36;
      }

      .cls-12 {
        opacity: .08;
      }

      .cls-13 {
        opacity: .03;
      }

      .cls-50 {
        letter-spacing: .04em;
      }

      .cls-51 {
        letter-spacing: .05em;
      }

      .cls-45, .cls-52 {
        letter-spacing: .05em;
      }

      .cls-14 {
        opacity: .64;
      }

      .cls-53 {
        fill: #06a3c9;
      }

      .cls-15 {
        opacity: .47;
      }

      .cls-16 {
        opacity: .11;
      }

      .cls-17 {
        opacity: .86;
      }

      .cls-18 {
        opacity: .83;
      }

      .cls-19 {
        isolation: isolate;
      }

      .cls-46 {
        letter-spacing: .05em;
      }

      .cls-20 {
        opacity: .28;
      }

      .cls-21 {
        opacity: .42;
      }

      .cls-22 {
        opacity: .94;
      }

      .cls-23 {
        opacity: .5;
      }

      .cls-24 {
        opacity: .75;
      }

      .cls-25 {
        opacity: .72;
      }

      .cls-27 {
        opacity: .89;
      }

      .cls-54 {
        fill: #09fff0;
      }

      .cls-28 {
        opacity: .22;
      }

      .cls-29 {
        opacity: .53;
      }

      .cls-30 {
        clip-path: url(#clippath);
      }

      .cls-31 {
        opacity: .31;
      }

      .cls-32 {
        opacity: .33;
      }

      .cls-33 {
        opacity: .25;
      }

      .cls-34 {
        opacity: .17;
      }

      .cls-55 {
        fill: url(#linear-gradient);
      }

      .cls-35 {
        opacity: .44;
      }

      .cls-36 {
        opacity: .19;
      }

      .cls-37 {
        opacity: 0;
      }

      .cls-38 {
        opacity: .39;
      }

      .cls-39 {
        opacity: .06;
      }

      .cls-40 {
        opacity: .61;
      }

      .cls-41 {
        opacity: .69;
      }

      .cls-56 {
        fill: #56a42c;
      }

      .cls-47 {
        letter-spacing: .05em;
      }

      .cls-42 {
        opacity: .92;
      }
    </style>
    <linearGradient id="linear-gradient" x1="-383.17" y1="1429.68" x2="1603.45" y2="-54.51" gradientUnits="userSpaceOnUse">
      <stop offset="0" stop-color="#1d43ff"/>
      <stop offset=".99" stop-color="#13ffa9"/>
    </linearGradient>
    <clipPath id="clippath">
      <rect class="cls-26" width="1617.55" height="1078.37"/>
    </clipPath>
  </defs>
  <g class="cls-19">
    <g id="BACKGROUND">
      <rect class="cls-55" width="1617.55" height="1078.37"/>
    </g>
    <g id="OBJECTS">
      <g class="cls-30">
        <g>
          <g>
            <rect class="cls-43" x="1304.02" y="372.82" width="4.05" height="25.71"/>
            <rect class="cls-43" x="1304.02" y="372.82" width="4.05" height="25.71" transform="translate(1691.72 -920.37) rotate(90)"/>
          </g>
          <g>
            <rect class="cls-43" x="1267.03" y="409.81" width="4.05" height="25.71"/>
            <rect class="cls-43" x="1267.03" y="409.81" width="4.05" height="25.71" transform="translate(1691.72 -846.39) rotate(90)"/>
          </g>
          <g>
            <rect class="cls-43" x="1230.04" y="446.8" width="4.05" height="25.71"/>
            <rect class="cls-43" x="1230.04" y="446.8" width="4.05" height="25.71" transform="translate(1691.72 -772.42) rotate(90)"/>
          </g>
          <g>
            <rect class="cls-43" x="1193.05" y="483.78" width="4.05" height="25.71"/>
            <rect class="cls-43" x="1193.05" y="483.78" width="4.05" height="25.71" transform="translate(1691.72 -698.45) rotate(90)"/>
          </g>
          <g>
            <rect class="cls-43" x="1156.07" y="520.77" width="4.05" height="25.71"/>
            <rect class="cls-43" x="1156.07" y="520.77" width="4.05" height="25.71" transform="translate(1691.72 -624.47) rotate(90)"/>
          </g>
        </g>
        <g>
          <g>
            <rect class="cls-43" x="438.6" y="806.65" width="4.05" height="25.71"/>
            <rect class="cls-43" x="438.6" y="806.65" width="4.05" height="25.71" transform="translate(1260.13 378.87) rotate(90)"/>
          </g>
          <g>
            <rect class="cls-43" x="401.62" y="843.64" width="4.05" height="25.71"/>
            <rect class="cls-43" x="401.62" y="843.64" width="4.05" height="25.71" transform="translate(1260.13 452.85) rotate(90)"/>
          </g>
          <g>
            <rect class="cls-43" x="364.63" y="880.62" width="4.05" height="25.71"/>
            <rect class="cls-43" x="364.63" y="880.62" width="4.05" height="25.71" transform="translate(1260.13 526.82) rotate(90)"/>
          </g>
          <g>
            <rect class="cls-43" x="327.64" y="917.61" width="4.05" height="25.71"/>
            <rect class="cls-43" x="327.64" y="917.61" width="4.05" height="25.71" transform="translate(1260.13 600.79) rotate(90)"/>
          </g>
          <g>
            <rect class="cls-43" x="290.66" y="954.6" width="4.05" height="25.71"/>
            <rect class="cls-43" x="290.66" y="954.6" width="4.05" height="25.71" transform="translate(1260.13 674.77) rotate(90)"/>
          </g>
        </g>
        <g class="cls-9">
          <path class="cls-43" d="m605.33-11.48l-273.14,273.14c-12.89,12.89-30.02,19.98-48.24,19.98s-35.35-7.1-48.24-19.98c-12.89-12.89-19.98-30.02-19.98-48.24s7.1-35.36,19.98-48.24L412.37-11.48h-3.05l-175.13,175.13c-27.44,27.44-27.44,72.09,0,99.53,13.72,13.72,31.74,20.58,49.76,20.58s36.05-6.86,49.77-20.58L608.38-11.48h-3.05Z"/>
        </g>
        <g class="cls-9">
          <path class="cls-43" d="m866.4,1085.78l270.81-270.81c26.6-26.6,69.88-26.6,96.48,0,26.6,26.6,26.6,69.88,0,96.48l-174.32,174.33h3.05l172.8-172.8c13.29-13.29,20.61-30.97,20.61-49.76s-7.32-36.47-20.61-49.76c-27.44-27.44-72.09-27.44-99.53,0l-272.33,272.33h3.05Z"/>
        </g>
        <g>
          <circle class="cls-43" cx="1259.42" cy="768.58" r="8.03"/>
          <path class="cls-43" d="m1415.94,623.42c-3.14,3.14-8.22,3.14-11.35,0s-3.14-8.22,0-11.35c3.14-3.14,8.22-3.14,11.35,0,3.14,3.14,3.14,8.22,0,11.35Z"/>
          <path class="cls-8" d="m1382.72,672.55c-7.53,7.53-19.74,7.53-27.26,0-7.53-7.53-7.53-19.73,0-27.26,7.53-7.53,19.74-7.53,27.26,0,7.53,7.53,7.53,19.73,0,27.26Z"/>
          <path class="cls-43" d="m1336.94,737.74c-12.89,12.89-33.79,12.89-46.68,0-12.89-12.89-12.89-33.79,0-46.68,12.89-12.89,33.79-12.89,46.68,0,12.89,12.89,12.89,33.79,0,46.68Z"/>
        </g>
        <g>
          <path class="cls-43" d="m83.41,614.23c3.14-3.14,8.22-3.14,11.36,0,3.14,3.14,3.14,8.22,0,11.35-3.14,3.14-8.22,3.14-11.36,0-3.14-3.14-3.14-8.22,0-11.35Z"/>
          <path class="cls-8" d="m116.63,565.1c7.53-7.53,19.73-7.53,27.26,0,7.53,7.53,7.53,19.74,0,27.26-7.53,7.53-19.73,7.53-27.26,0-7.53-7.53-7.53-19.74,0-27.26Z"/>
          <circle class="cls-43" cx="185.75" cy="523.25" r="33.01"/>
        </g>
        <g class="cls-9">
          <polygon class="cls-43" points="0 886.27 234.86 651.41 233.84 650.38 0 884.22 0 886.27"/>
        </g>
        <g class="cls-9">
          <polygon class="cls-43" points="589.82 1085.78 931.41 744.2 929.88 742.67 586.77 1085.78 589.82 1085.78"/>
        </g>
        <polygon class="cls-54" points="965.65 99.09 1091.94 231.63 1143.58 56 965.65 99.09"/>
        <g>
          <polygon class="cls-54" points="608.43 904.1 661.43 959.73 683.1 886.01 608.43 904.1"/>
          <polygon class="cls-54" points="752.56 801.02 768.44 817.69 774.93 795.6 752.56 801.02"/>
          <polygon class="cls-54" points="698.81 840.57 724.6 867.63 735.14 831.77 698.81 840.57"/>
        </g>
        <g>
          <polygon class="cls-54" points="864.96 271.97 909.61 318.83 927.86 256.74 864.96 271.97"/>
          <polygon class="cls-54" points="986.36 185.15 999.74 199.2 1005.21 180.59 986.36 185.15"/>
          <polygon class="cls-54" points="941.1 218.46 962.81 241.26 971.69 211.05 941.1 218.46"/>
        </g>
        <g>
          <g class="cls-9">
            <g>
              <g>
                <rect class="cls-43" x="541.66" y="239.04" width="2.85" height="18.17"/>
                <rect class="cls-43" x="541.65" y="239.09" width="2.86" height="18.07" transform="translate(791.21 -294.96) rotate(90)"/>
              </g>
              <g>
                <rect class="cls-43" x="563.11" y="217.48" width="2.85" height="18.17"/>
                <rect class="cls-43" x="563.11" y="217.52" width="2.86" height="18.07" transform="translate(791.1 -337.98) rotate(90)"/>
              </g>
              <g>
                <rect class="cls-43" x="584.57" y="195.91" width="2.85" height="18.17"/>
                <rect class="cls-43" x="584.56" y="195.96" width="2.86" height="18.07" transform="translate(790.98 -381) rotate(90)"/>
              </g>
              <g>
                <rect class="cls-43" x="606.02" y="174.34" width="2.85" height="18.17"/>
                <rect class="cls-43" x="606.02" y="174.39" width="2.86" height="18.07" transform="translate(790.87 -424.02) rotate(90)"/>
              </g>
              <g>
                <rect class="cls-43" x="627.48" y="152.77" width="2.85" height="18.17"/>
                <rect class="cls-43" x="627.47" y="152.82" width="2.86" height="18.07" transform="translate(790.76 -467.05) rotate(90)"/>
              </g>
              <g>
                <rect class="cls-43" x="648.93" y="131.2" width="2.85" height="18.17"/>
                <rect class="cls-43" x="648.93" y="131.25" width="2.86" height="18.07" transform="translate(790.64 -510.07) rotate(90)"/>
              </g>
              <g>
                <rect class="cls-43" x="670.39" y="109.64" width="2.85" height="18.17"/>
                <rect class="cls-43" x="670.38" y="109.68" width="2.86" height="18.07" transform="translate(790.53 -553.09) rotate(90)"/>
              </g>
              <g>
                <rect class="cls-43" x="691.84" y="88.07" width="2.85" height="18.17"/>
                <rect class="cls-43" x="691.83" y="88.12" width="2.86" height="18.07" transform="translate(790.42 -596.11) rotate(90)"/>
              </g>
              <g>
                <rect class="cls-43" x="713.3" y="66.5" width="2.85" height="18.17"/>
                <rect class="cls-43" x="713.29" y="66.55" width="2.86" height="18.07" transform="translate(790.3 -639.14) rotate(90)"/>
              </g>
              <g>
                <rect class="cls-43" x="734.75" y="44.93" width="2.85" height="18.17"/>
                <rect class="cls-43" x="734.74" y="44.98" width="2.86" height="18.07" transform="translate(790.19 -682.16) rotate(90)"/>
              </g>
            </g>
            <g>
              <g>
                <rect class="cls-43" x="561.18" y="258.67" width="2.85" height="18.17"/>
                <rect class="cls-43" x="561.17" y="258.71" width="2.86" height="18.07" transform="translate(830.35 -294.85) rotate(90)"/>
              </g>
              <g>
                <rect class="cls-43" x="582.63" y="237.1" width="2.85" height="18.17"/>
                <rect class="cls-43" x="582.63" y="237.15" width="2.86" height="18.07" transform="translate(830.24 -337.88) rotate(90)"/>
              </g>
              <g>
                <rect class="cls-43" x="604.09" y="215.53" width="2.85" height="18.17"/>
                <rect class="cls-43" x="604.08" y="215.58" width="2.86" height="18.07" transform="translate(830.13 -380.9) rotate(90)"/>
              </g>
              <g>
                <rect class="cls-43" x="625.54" y="193.96" width="2.85" height="18.17"/>
                <rect class="cls-43" x="625.53" y="194.01" width="2.86" height="18.07" transform="translate(830.01 -423.92) rotate(90)"/>
              </g>
              <g>
                <rect class="cls-43" x="647" y="172.39" width="2.85" height="18.17"/>
                <rect class="cls-43" x="646.99" y="172.44" width="2.86" height="18.07" transform="translate(829.9 -466.94) rotate(90)"/>
              </g>
              <g>
                <rect class="cls-43" x="668.45" y="150.83" width="2.85" height="18.17"/>
                <rect class="cls-43" x="668.44" y="150.87" width="2.86" height="18.07" transform="translate(829.79 -509.97) rotate(90)"/>
              </g>
              <g>
                <rect class="cls-43" x="689.91" y="129.26" width="2.85" height="18.17"/>
                <rect class="cls-43" x="689.9" y="129.31" width="2.86" height="18.07" transform="translate(829.67 -552.99) rotate(90)"/>
              </g>
              <g>
                <rect class="cls-43" x="711.36" y="107.69" width="2.85" height="18.17"/>
                <rect class="cls-43" x="711.35" y="107.74" width="2.86" height="18.07" transform="translate(829.56 -596.01) rotate(90)"/>
              </g>
              <g>
                <rect class="cls-43" x="732.82" y="86.12" width="2.85" height="18.17"/>
                <rect class="cls-43" x="732.81" y="86.17" width="2.86" height="18.07" transform="translate(829.45 -639.03) rotate(90)"/>
              </g>
              <g>
                <rect class="cls-43" x="754.27" y="64.55" width="2.85" height="18.17"/>
                <rect class="cls-43" x="754.26" y="64.6" width="2.86" height="18.07" transform="translate(829.33 -682.06) rotate(90)"/>
              </g>
            </g>
            <g>
              <g>
                <rect class="cls-43" x="580.7" y="278.29" width="2.85" height="18.17"/>
                <rect class="cls-43" x="580.69" y="278.34" width="2.86" height="18.07" transform="translate(869.49 -294.75) rotate(90)"/>
              </g>
              <g>
                <rect class="cls-43" x="602.15" y="256.72" width="2.85" height="18.17"/>
                <rect class="cls-43" x="602.14" y="256.77" width="2.86" height="18.07" transform="translate(869.38 -337.77) rotate(90)"/>
              </g>
              <g>
                <rect class="cls-43" x="623.61" y="235.15" width="2.85" height="18.17"/>
                <rect class="cls-43" x="623.6" y="235.2" width="2.86" height="18.07" transform="translate(869.27 -380.8) rotate(90)"/>
              </g>
              <g>
                <rect class="cls-43" x="645.06" y="213.58" width="2.85" height="18.17"/>
                <rect class="cls-43" x="645.05" y="213.63" width="2.86" height="18.07" transform="translate(869.15 -423.82) rotate(90)"/>
              </g>
              <g>
                <rect class="cls-43" x="666.52" y="192.02" width="2.85" height="18.17"/>
                <rect class="cls-43" x="666.51" y="192.06" width="2.86" height="18.07" transform="translate(869.04 -466.84) rotate(90)"/>
              </g>
              <g>
                <rect class="cls-43" x="687.97" y="170.45" width="2.85" height="18.17"/>
                <rect class="cls-43" x="687.96" y="170.5" width="2.86" height="18.07" transform="translate(868.93 -509.86) rotate(90)"/>
              </g>
              <g>
                <rect class="cls-43" x="709.43" y="148.88" width="2.85" height="18.17"/>
                <rect class="cls-43" x="709.42" y="148.93" width="2.86" height="18.07" transform="translate(868.81 -552.89) rotate(90)"/>
              </g>
              <g>
                <rect class="cls-43" x="730.88" y="127.31" width="2.85" height="18.17"/>
                <rect class="cls-43" x="730.87" y="127.36" width="2.86" height="18.07" transform="translate(868.7 -595.91) rotate(90)"/>
              </g>
              <g>
                <rect class="cls-43" x="752.33" y="105.75" width="2.85" height="18.17"/>
                <rect class="cls-43" x="752.33" y="105.79" width="2.86" height="18.07" transform="translate(868.59 -638.93) rotate(90)"/>
              </g>
              <g>
                <rect class="cls-43" x="773.79" y="84.18" width="2.85" height="18.17"/>
                <rect class="cls-43" x="773.78" y="84.22" width="2.86" height="18.07" transform="translate(868.47 -681.95) rotate(90)"/>
              </g>
            </g>
          </g>
          <g>
            <rect class="cls-43" x="541.66" y="239.04" width="2.85" height="18.17"/>
            <rect class="cls-43" x="541.65" y="239.09" width="2.86" height="18.07" transform="translate(791.21 -294.96) rotate(90)"/>
          </g>
          <g>
            <rect class="cls-43" x="647" y="172.39" width="2.85" height="18.17"/>
            <rect class="cls-43" x="646.99" y="172.44" width="2.86" height="18.07" transform="translate(829.9 -466.94) rotate(90)"/>
          </g>
          <g>
            <rect class="cls-43" x="752.33" y="105.75" width="2.85" height="18.17"/>
            <rect class="cls-43" x="752.33" y="105.79" width="2.86" height="18.07" transform="translate(868.59 -638.93) rotate(90)"/>
          </g>
        </g>
        <g>
          <g class="cls-9">
            <g>
              <g>
                <rect class="cls-43" x="765.59" y="963.49" width="2.85" height="18.07"/>
                <rect class="cls-43" x="765.59" y="963.49" width="2.85" height="18.07" transform="translate(1739.54 205.51) rotate(90)"/>
              </g>
              <g>
                <rect class="cls-43" x="787.05" y="942.04" width="2.85" height="18.07"/>
                <rect class="cls-43" x="787.05" y="942.04" width="2.85" height="18.07" transform="translate(1739.54 162.6) rotate(90)"/>
              </g>
              <g>
                <rect class="cls-43" x="808.5" y="920.58" width="2.85" height="18.07"/>
                <rect class="cls-43" x="808.5" y="920.58" width="2.85" height="18.07" transform="translate(1739.54 119.7) rotate(90)"/>
              </g>
              <g>
                <rect class="cls-43" x="829.96" y="899.13" width="2.85" height="18.07"/>
                <rect class="cls-43" x="829.96" y="899.13" width="2.85" height="18.07" transform="translate(1739.54 76.79) rotate(90)"/>
              </g>
              <g>
                <rect class="cls-43" x="851.41" y="877.67" width="2.85" height="18.07"/>
                <rect class="cls-43" x="851.41" y="877.67" width="2.85" height="18.07" transform="translate(1739.54 33.88) rotate(90)"/>
              </g>
              <g>
                <rect class="cls-43" x="872.86" y="856.22" width="2.85" height="18.07"/>
                <rect class="cls-43" x="872.86" y="856.22" width="2.85" height="18.07" transform="translate(1739.54 -9.03) rotate(90)"/>
              </g>
              <g>
                <rect class="cls-43" x="894.32" y="834.77" width="2.85" height="18.07"/>
                <rect class="cls-43" x="894.32" y="834.77" width="2.85" height="18.07" transform="translate(1739.54 -51.94) rotate(90)"/>
              </g>
              <g>
                <rect class="cls-43" x="915.77" y="813.31" width="2.85" height="18.07"/>
                <rect class="cls-43" x="915.77" y="813.31" width="2.85" height="18.07" transform="translate(1739.54 -94.85) rotate(90)"/>
              </g>
              <g>
                <rect class="cls-43" x="937.23" y="791.86" width="2.85" height="18.07"/>
                <rect class="cls-43" x="937.23" y="791.86" width="2.85" height="18.07" transform="translate(1739.54 -137.76) rotate(90)"/>
              </g>
              <g>
                <rect class="cls-43" x="958.68" y="770.4" width="2.85" height="18.07"/>
                <rect class="cls-43" x="958.68" y="770.4" width="2.85" height="18.07" transform="translate(1739.54 -180.67) rotate(90)"/>
              </g>
            </g>
            <g>
              <g>
                <rect class="cls-43" x="785.11" y="983.01" width="2.85" height="18.07"/>
                <rect class="cls-43" x="785.11" y="983.01" width="2.85" height="18.07" transform="translate(1778.58 205.51) rotate(90)"/>
              </g>
              <g>
                <rect class="cls-43" x="806.57" y="961.56" width="2.85" height="18.07"/>
                <rect class="cls-43" x="806.57" y="961.56" width="2.85" height="18.07" transform="translate(1778.58 162.6) rotate(90)"/>
              </g>
              <g>
                <rect class="cls-43" x="828.02" y="940.1" width="2.85" height="18.07"/>
                <rect class="cls-43" x="828.02" y="940.1" width="2.85" height="18.07" transform="translate(1778.58 119.7) rotate(90)"/>
              </g>
              <g>
                <rect class="cls-43" x="849.47" y="918.65" width="2.85" height="18.07"/>
                <rect class="cls-43" x="849.47" y="918.65" width="2.85" height="18.07" transform="translate(1778.58 76.79) rotate(90)"/>
              </g>
              <g>
                <rect class="cls-43" x="870.93" y="897.19" width="2.85" height="18.07"/>
                <rect class="cls-43" x="870.93" y="897.19" width="2.85" height="18.07" transform="translate(1778.58 33.88) rotate(90)"/>
              </g>
              <g>
                <rect class="cls-43" x="892.38" y="875.74" width="2.85" height="18.07"/>
                <rect class="cls-43" x="892.38" y="875.74" width="2.85" height="18.07" transform="translate(1778.58 -9.03) rotate(90)"/>
              </g>
              <g>
                <rect class="cls-43" x="913.84" y="854.28" width="2.85" height="18.07"/>
                <rect class="cls-43" x="913.84" y="854.28" width="2.85" height="18.07" transform="translate(1778.58 -51.94) rotate(90)"/>
              </g>
              <g>
                <rect class="cls-43" x="935.29" y="832.83" width="2.85" height="18.07"/>
                <rect class="cls-43" x="935.29" y="832.83" width="2.85" height="18.07" transform="translate(1778.58 -94.85) rotate(90)"/>
              </g>
              <g>
                <rect class="cls-43" x="956.75" y="811.38" width="2.85" height="18.07"/>
                <rect class="cls-43" x="956.75" y="811.38" width="2.85" height="18.07" transform="translate(1778.58 -137.76) rotate(90)"/>
              </g>
              <g>
                <rect class="cls-43" x="978.2" y="789.92" width="2.85" height="18.07"/>
                <rect class="cls-43" x="978.2" y="789.92" width="2.85" height="18.07" transform="translate(1778.58 -180.67) rotate(90)"/>
              </g>
            </g>
            <g>
              <g>
                <rect class="cls-43" x="804.63" y="1002.53" width="2.85" height="18.07"/>
                <rect class="cls-43" x="804.63" y="1002.53" width="2.85" height="18.07" transform="translate(1817.62 205.51) rotate(90)"/>
              </g>
              <g>
                <rect class="cls-43" x="826.08" y="981.08" width="2.85" height="18.07"/>
                <rect class="cls-43" x="826.08" y="981.08" width="2.85" height="18.07" transform="translate(1817.62 162.6) rotate(90)"/>
              </g>
              <g>
                <rect class="cls-43" x="847.54" y="959.62" width="2.85" height="18.07"/>
                <rect class="cls-43" x="847.54" y="959.62" width="2.85" height="18.07" transform="translate(1817.62 119.7) rotate(90)"/>
              </g>
              <g>
                <rect class="cls-43" x="868.99" y="938.17" width="2.85" height="18.07"/>
                <rect class="cls-43" x="868.99" y="938.17" width="2.85" height="18.07" transform="translate(1817.62 76.79) rotate(90)"/>
              </g>
              <g>
                <rect class="cls-43" x="890.45" y="916.71" width="2.85" height="18.07"/>
                <rect class="cls-43" x="890.45" y="916.71" width="2.85" height="18.07" transform="translate(1817.62 33.88) rotate(90)"/>
              </g>
              <g>
                <rect class="cls-43" x="911.9" y="895.26" width="2.85" height="18.07"/>
                <rect class="cls-43" x="911.9" y="895.26" width="2.85" height="18.07" transform="translate(1817.62 -9.03) rotate(90)"/>
              </g>
              <g>
                <rect class="cls-43" x="933.36" y="873.8" width="2.85" height="18.07"/>
                <rect class="cls-43" x="933.36" y="873.8" width="2.85" height="18.07" transform="translate(1817.62 -51.94) rotate(90)"/>
              </g>
              <g>
                <rect class="cls-43" x="954.81" y="852.35" width="2.85" height="18.07"/>
                <rect class="cls-43" x="954.81" y="852.35" width="2.85" height="18.07" transform="translate(1817.62 -94.85) rotate(90)"/>
              </g>
              <g>
                <rect class="cls-43" x="976.27" y="830.89" width="2.85" height="18.07"/>
                <rect class="cls-43" x="976.27" y="830.89" width="2.85" height="18.07" transform="translate(1817.62 -137.76) rotate(90)"/>
              </g>
              <g>
                <rect class="cls-43" x="997.72" y="809.44" width="2.85" height="18.07"/>
                <rect class="cls-43" x="997.72" y="809.44" width="2.85" height="18.07" transform="translate(1817.62 -180.67) rotate(90)"/>
              </g>
            </g>
          </g>
          <g>
            <rect class="cls-43" x="765.59" y="963.49" width="2.85" height="18.07"/>
            <rect class="cls-43" x="765.59" y="963.49" width="2.85" height="18.07" transform="translate(1739.54 205.51) rotate(90)"/>
          </g>
          <g>
            <rect class="cls-43" x="870.93" y="897.19" width="2.85" height="18.07"/>
            <rect class="cls-43" x="870.93" y="897.19" width="2.85" height="18.07" transform="translate(1778.58 33.88) rotate(90)"/>
          </g>
          <g>
            <rect class="cls-43" x="976.27" y="830.89" width="2.85" height="18.07"/>
            <rect class="cls-43" x="976.27" y="830.89" width="2.85" height="18.07" transform="translate(1817.62 -137.76) rotate(90)"/>
          </g>
        </g>
        <circle class="cls-7" cx="1410.26" cy="617.74" r="132.94" transform="translate(-23.75 1178.14) rotate(-45)"/>
        <path class="cls-43" d="m257.85,1136.55c-73.9,0-134.02-60.12-134.02-134.02s60.12-134.02,134.02-134.02,134.02,60.12,134.02,134.02-60.12,134.02-134.02,134.02Zm0-265.89c-72.71,0-131.87,59.15-131.87,131.87s59.16,131.86,131.87,131.86,131.87-59.15,131.87-131.86-59.15-131.87-131.87-131.87Z"/>
        <g class="cls-9">
          <polygon class="cls-43" points="-4.9 499.46 506.04 -11.48 502.99 -11.48 -4.9 496.41 -4.9 499.46"/>
          <g class="cls-10">
            <polygon class="cls-43" points="-4.9 492.78 499.36 -11.48 496.31 -11.48 -4.9 489.73 -4.9 492.78"/>
          </g>
          <g class="cls-22">
            <polygon class="cls-43" points="-4.9 486.1 492.68 -11.48 489.63 -11.48 -4.9 483.05 -4.9 486.1"/>
          </g>
          <g class="cls-42">
            <polygon class="cls-43" points="-4.9 479.42 486 -11.48 482.95 -11.48 -4.9 476.37 -4.9 479.42"/>
          </g>
          <g class="cls-27">
            <polygon class="cls-43" points="-4.9 472.74 479.32 -11.48 476.27 -11.48 -4.9 469.69 -4.9 472.74"/>
          </g>
          <g class="cls-17">
            <polygon class="cls-43" points="-4.9 466.06 472.64 -11.48 469.59 -11.48 -4.9 463.01 -4.9 466.06"/>
          </g>
          <g class="cls-18">
            <polygon class="cls-43" points="-4.9 459.38 465.96 -11.48 462.91 -11.48 -4.9 456.33 -4.9 459.38"/>
          </g>
          <g class="cls-3">
            <polygon class="cls-43" points="-4.9 452.7 459.28 -11.48 456.23 -11.48 -4.9 449.65 -4.9 452.7"/>
          </g>
          <g class="cls-2">
            <polygon class="cls-43" points="-4.9 446.02 452.6 -11.48 449.55 -11.48 -4.9 442.97 -4.9 446.02"/>
          </g>
          <g class="cls-24">
            <polygon class="cls-43" points="-4.9 439.34 445.92 -11.48 442.87 -11.48 -4.9 436.29 -4.9 439.34"/>
          </g>
          <g class="cls-25">
            <polygon class="cls-43" points="-4.9 432.66 439.24 -11.48 436.19 -11.48 -4.9 429.62 -4.9 432.66"/>
          </g>
          <g class="cls-41">
            <polygon class="cls-43" points="-4.9 425.99 432.56 -11.48 429.51 -11.48 -4.9 422.94 -4.9 425.99"/>
          </g>
          <g class="cls-4">
            <polygon class="cls-43" points="-4.9 419.31 425.88 -11.48 422.83 -11.48 -4.9 416.26 -4.9 419.31"/>
          </g>
          <g class="cls-14">
            <polygon class="cls-43" points="-4.9 412.63 419.2 -11.48 416.15 -11.48 -4.9 409.58 -4.9 412.63"/>
          </g>
          <g class="cls-40">
            <polygon class="cls-43" points="-4.9 405.95 412.53 -11.48 409.48 -11.48 -4.9 402.9 -4.9 405.95"/>
          </g>
          <g class="cls-1">
            <polygon class="cls-43" points="-4.9 399.27 405.85 -11.48 402.8 -11.48 -4.9 396.22 -4.9 399.27"/>
          </g>
          <g class="cls-5">
            <polygon class="cls-43" points="-4.9 392.59 399.17 -11.48 396.12 -11.48 -4.9 389.54 -4.9 392.59"/>
          </g>
          <g class="cls-29">
            <polygon class="cls-43" points="-4.9 385.91 392.49 -11.48 389.44 -11.48 -4.9 382.86 -4.9 385.91"/>
          </g>
          <g class="cls-23">
            <polygon class="cls-43" points="-4.9 379.23 385.81 -11.48 382.76 -11.48 -4.9 376.18 -4.9 379.23"/>
          </g>
          <g class="cls-15">
            <polygon class="cls-43" points="-4.9 372.55 379.13 -11.48 376.08 -11.48 -4.9 369.5 -4.9 372.55"/>
          </g>
          <g class="cls-35">
            <polygon class="cls-43" points="-4.9 365.87 372.45 -11.48 369.4 -11.48 -4.9 362.82 -4.9 365.87"/>
          </g>
          <g class="cls-21">
            <polygon class="cls-43" points="-4.9 359.19 365.77 -11.48 362.72 -11.48 -4.9 356.14 -4.9 359.19"/>
          </g>
          <g class="cls-38">
            <polygon class="cls-43" points="-4.9 352.51 359.09 -11.48 356.04 -11.48 -4.9 349.46 -4.9 352.51"/>
          </g>
          <g class="cls-11">
            <polygon class="cls-43" points="-4.9 345.83 352.41 -11.48 349.36 -11.48 -4.9 342.78 -4.9 345.83"/>
          </g>
          <g class="cls-32">
            <polygon class="cls-43" points="-4.9 339.15 345.73 -11.48 342.68 -11.48 -4.9 336.1 -4.9 339.15"/>
          </g>
          <g class="cls-31">
            <polygon class="cls-43" points="-4.9 332.48 339.05 -11.48 336 -11.48 -4.9 329.43 -4.9 332.48"/>
          </g>
          <g class="cls-20">
            <polygon class="cls-43" points="-4.9 325.8 332.37 -11.48 329.32 -11.48 -4.9 322.75 -4.9 325.8"/>
          </g>
          <g class="cls-33">
            <polygon class="cls-43" points="-4.9 319.12 325.69 -11.48 322.64 -11.48 -4.9 316.07 -4.9 319.12"/>
          </g>
          <g class="cls-28">
            <polygon class="cls-43" points="-4.9 312.44 319.01 -11.48 315.96 -11.48 -4.9 309.39 -4.9 312.44"/>
          </g>
          <g class="cls-36">
            <polygon class="cls-43" points="-4.9 305.76 312.33 -11.48 309.29 -11.48 -4.9 302.71 -4.9 305.76"/>
          </g>
          <g class="cls-34">
            <polygon class="cls-43" points="-4.9 299.08 305.66 -11.48 302.61 -11.48 -4.9 296.03 -4.9 299.08"/>
          </g>
          <g class="cls-6">
            <polygon class="cls-43" points="-4.9 292.4 298.98 -11.48 295.93 -11.48 -4.9 289.35 -4.9 292.4"/>
          </g>
          <g class="cls-16">
            <polygon class="cls-43" points="-4.9 285.72 292.3 -11.48 289.25 -11.48 -4.9 282.67 -4.9 285.72"/>
          </g>
          <g class="cls-12">
            <polygon class="cls-43" points="-4.9 279.04 285.62 -11.48 282.57 -11.48 -4.9 275.99 -4.9 279.04"/>
          </g>
          <g class="cls-39">
            <polygon class="cls-43" points="-4.9 272.36 278.94 -11.48 275.89 -11.48 -4.9 269.31 -4.9 272.36"/>
          </g>
          <g class="cls-13">
            <polygon class="cls-43" points="-4.9 265.68 272.26 -11.48 269.21 -11.48 -4.9 262.63 -4.9 265.68"/>
          </g>
          <g class="cls-37">
            <polygon class="cls-43" points="-4.9 259 265.58 -11.48 262.53 -11.48 -4.9 255.95 -4.9 259"/>
          </g>
        </g>
        <g class="cls-9">
          <polygon class="cls-43" points="1188.53 1085.78 1623.66 650.65 1623.66 648.36 1186.24 1085.78 1188.53 1085.78"/>
          <g class="cls-10">
            <polygon class="cls-43" points="1195.51 1085.78 1623.66 657.63 1623.66 655.34 1193.22 1085.78 1195.51 1085.78"/>
          </g>
          <g class="cls-22">
            <polygon class="cls-43" points="1202.5 1085.78 1623.66 664.61 1623.66 662.32 1200.21 1085.78 1202.5 1085.78"/>
          </g>
          <g class="cls-42">
            <polygon class="cls-43" points="1209.48 1085.78 1623.66 671.6 1623.66 669.31 1207.19 1085.78 1209.48 1085.78"/>
          </g>
          <g class="cls-27">
            <polygon class="cls-43" points="1216.46 1085.78 1623.66 678.58 1623.66 676.29 1214.17 1085.78 1216.46 1085.78"/>
          </g>
          <g class="cls-17">
            <polygon class="cls-43" points="1223.45 1085.78 1623.66 685.56 1623.66 683.27 1221.16 1085.78 1223.45 1085.78"/>
          </g>
          <g class="cls-18">
            <polygon class="cls-43" points="1230.43 1085.78 1623.66 692.55 1623.66 690.26 1228.14 1085.78 1230.43 1085.78"/>
          </g>
          <g class="cls-3">
            <polygon class="cls-43" points="1237.41 1085.78 1623.66 699.53 1623.66 697.24 1235.12 1085.78 1237.41 1085.78"/>
          </g>
          <g class="cls-2">
            <polygon class="cls-43" points="1244.4 1085.78 1623.66 706.51 1623.66 704.22 1242.11 1085.78 1244.4 1085.78"/>
          </g>
          <g class="cls-24">
            <polygon class="cls-43" points="1251.38 1085.78 1623.66 713.5 1623.66 711.21 1249.09 1085.78 1251.38 1085.78"/>
          </g>
          <g class="cls-25">
            <polygon class="cls-43" points="1258.37 1085.78 1623.66 720.48 1623.66 718.19 1256.07 1085.78 1258.37 1085.78"/>
          </g>
          <g class="cls-41">
            <polygon class="cls-43" points="1265.35 1085.78 1623.66 727.47 1623.66 725.18 1263.06 1085.78 1265.35 1085.78"/>
          </g>
          <g class="cls-4">
            <polygon class="cls-43" points="1272.33 1085.78 1623.66 734.45 1623.66 732.16 1270.04 1085.78 1272.33 1085.78"/>
          </g>
          <g class="cls-14">
            <polygon class="cls-43" points="1279.32 1085.78 1623.66 741.43 1623.66 739.14 1277.03 1085.78 1279.32 1085.78"/>
          </g>
          <g class="cls-40">
            <polygon class="cls-43" points="1286.3 1085.78 1623.66 748.42 1623.66 746.13 1284.01 1085.78 1286.3 1085.78"/>
          </g>
          <g class="cls-1">
            <polygon class="cls-43" points="1293.28 1085.78 1623.66 755.4 1623.66 753.11 1290.99 1085.78 1293.28 1085.78"/>
          </g>
          <g class="cls-5">
            <polygon class="cls-43" points="1300.27 1085.78 1623.66 762.38 1623.66 760.09 1297.97 1085.78 1300.27 1085.78"/>
          </g>
          <g class="cls-29">
            <polygon class="cls-43" points="1307.25 1085.78 1623.66 769.37 1623.66 767.08 1304.96 1085.78 1307.25 1085.78"/>
          </g>
          <g class="cls-23">
            <polygon class="cls-43" points="1314.23 1085.78 1623.66 776.35 1623.66 774.06 1311.94 1085.78 1314.23 1085.78"/>
          </g>
          <g class="cls-15">
            <polygon class="cls-43" points="1321.22 1085.78 1623.66 783.33 1623.66 781.04 1318.92 1085.78 1321.22 1085.78"/>
          </g>
          <g class="cls-35">
            <polygon class="cls-43" points="1328.2 1085.78 1623.66 790.32 1623.66 788.03 1325.91 1085.78 1328.2 1085.78"/>
          </g>
          <g class="cls-21">
            <polygon class="cls-43" points="1335.18 1085.78 1623.66 797.3 1623.66 795.01 1332.89 1085.78 1335.18 1085.78"/>
          </g>
          <g class="cls-38">
            <polygon class="cls-43" points="1342.17 1085.78 1623.66 804.28 1623.66 801.99 1339.88 1085.78 1342.17 1085.78"/>
          </g>
          <g class="cls-11">
            <polygon class="cls-43" points="1349.15 1085.78 1623.66 811.27 1623.66 808.98 1346.86 1085.78 1349.15 1085.78"/>
          </g>
          <g class="cls-32">
            <polygon class="cls-43" points="1356.14 1085.78 1623.66 818.25 1623.66 815.96 1353.84 1085.78 1356.14 1085.78"/>
          </g>
          <g class="cls-31">
            <polygon class="cls-43" points="1363.12 1085.78 1623.66 825.24 1623.66 822.94 1360.83 1085.78 1363.12 1085.78"/>
          </g>
          <g class="cls-20">
            <polygon class="cls-43" points="1370.1 1085.78 1623.66 832.22 1623.66 829.93 1367.81 1085.78 1370.1 1085.78"/>
          </g>
          <g class="cls-33">
            <polygon class="cls-43" points="1377.08 1085.78 1623.66 839.2 1623.66 836.91 1374.79 1085.78 1377.08 1085.78"/>
          </g>
          <g class="cls-28">
            <polygon class="cls-43" points="1384.07 1085.78 1623.66 846.19 1623.66 843.9 1381.78 1085.78 1384.07 1085.78"/>
          </g>
          <g class="cls-36">
            <polygon class="cls-43" points="1391.05 1085.78 1623.66 853.17 1623.66 850.88 1388.76 1085.78 1391.05 1085.78"/>
          </g>
          <g class="cls-34">
            <polygon class="cls-43" points="1398.03 1085.78 1623.66 860.15 1623.66 857.86 1395.74 1085.78 1398.03 1085.78"/>
          </g>
          <g class="cls-6">
            <polygon class="cls-43" points="1405.02 1085.78 1623.66 867.14 1623.66 864.85 1402.73 1085.78 1405.02 1085.78"/>
          </g>
          <g class="cls-16">
            <polygon class="cls-43" points="1412 1085.78 1623.66 874.12 1623.66 871.83 1409.71 1085.78 1412 1085.78"/>
          </g>
          <g class="cls-12">
            <polygon class="cls-43" points="1418.99 1085.78 1623.66 881.1 1623.66 878.81 1416.7 1085.78 1418.99 1085.78"/>
          </g>
          <g class="cls-39">
            <polygon class="cls-43" points="1425.97 1085.78 1623.66 888.09 1623.66 885.8 1423.68 1085.78 1425.97 1085.78"/>
          </g>
          <g class="cls-13">
            <polygon class="cls-43" points="1432.95 1085.78 1623.66 895.07 1623.66 892.78 1430.66 1085.78 1432.95 1085.78"/>
          </g>
          <g class="cls-37">
            <polygon class="cls-43" points="1439.94 1085.78 1623.66 902.05 1623.66 899.76 1437.65 1085.78 1439.94 1085.78"/>
          </g>
        </g>
      </g>
      <text class="cls-46" transform="translate(253.92 481.96)"><tspan x="0" y="0">C</tspan></text>
      <text class="cls-44" transform="translate(371.54 481.96) scale(.7)"><tspan class="cls-52" x="0" y="0">OMUNI</tspan><tspan class="cls-50" x="613.64" y="0">D</tspan><tspan class="cls-51" x="744.7" y="0">AD</tspan></text>
      <text class="cls-47" transform="translate(1072.9 481.96)"><tspan x="0" y="0"> </tspan></text>
      <text class="cls-45" transform="translate(303.16 705.99) scale(.7)"><tspan x="0" y="0">DE</tspan></text>
      <text class="cls-46" transform="translate(467.56 705.99)"><tspan x="0" y="0"> </tspan></text>
      <text class="cls-44" transform="translate(516.47 705.99) scale(.7)"><tspan class="cls-52" x="0" y="0">T</tspan><tspan class="cls-49" x="102.12" y="0">R</tspan><tspan class="cls-51" x="212.82" y="0">AB</tspan><tspan class="cls-48" x="446.93" y="0">A</tspan><tspan class="cls-52" x="574.07" y="0">JO</tspan></text>
      <g>
        <path class="cls-56" d="m1356.26,142.5h19.01c4.87,0,9.75-.01,14.62,0,16.62.05,29.93,11.45,33.12,27.21.42,2.08.62,4.24.63,6.37.05,18.08.03,36.16.02,54.24,0,.54-.08,1.08-.14,1.73-.55.08-1,.21-1.45.2-11.52-.06-23.06.14-34.57-.29-14.12-.52-26.5-10.87-30.08-24.59-.58-2.22-1.1-4.54-1.11-6.82-.09-19.2-.05-38.41-.05-58.05Z"/>
        <path class="cls-56" d="m1254.95,120.09c-4.24,0-8.15,0-12.07,0-7.31,0-14.63-.13-21.93.03-16.12.33-29.53-12.32-32.34-25.66-.61-2.88-1.01-5.86-1.03-8.8-.09-17.34-.05-34.67-.05-52.01v-2.86c.5-.13.84-.29,1.19-.29,11.34,0,22.69-.22,34.02.1,18.04.51,32.2,15.38,32.22,33.44.01,17.71,0,35.42,0,53.14v2.92Z"/>
        <path class="cls-56" d="m1356.23,120.06v-6.43c0-16.58.04-33.17-.01-49.75-.06-18.43,15.25-33.06,32.28-33.35,11.24-.19,22.49-.05,33.74-.04.36,0,.72.09,1.25.17.06.76.17,1.48.17,2.2,0,17.61.13,35.23-.03,52.84-.13,13.92-6.28,24.54-18.78,30.86-3.8,1.92-8.3,3.2-12.54,3.35-11.88.45-23.78.16-36.07.16Z"/>
        <path class="cls-56" d="m1187.68,231.94c0-1.05,0-2.06,0-3.07,0-17.61.08-35.22-.02-52.83-.11-18.84,15.79-33.7,33.53-33.56,11.14.09,22.27.02,33.76.02,0,1.15,0,2.14,0,3.13,0,17.61.09,35.22-.03,52.83-.08,11.48-4.76,20.78-14.11,27.53-5.51,3.98-11.75,6.12-18.58,6.17-10.96.08-21.92.02-32.89.01-.45,0-.9-.13-1.67-.24Z"/>
        <path class="cls-53" d="m1332.5,232.15h-53.73v-89.47h53.73v89.47Z"/>
        <path class="cls-53" d="m1278.75,30.58h53.72v89.34h-53.72V30.58Z"/>
        <path class="cls-43" d="m1258.34,256.8h7.43v37.43c-2.51.51-4.79.19-7.01-2.31-6.31-7.13-12.94-13.96-19.56-21.04v23.37h-7.15c-.75-12.32.76-24.81-1.02-37.36,3.47-.52,6.53-.45,9.33,2.98,5.82,7.14,12.18,13.83,17.98,20.33v-23.39Z"/>
        <path class="cls-43" d="m1309.74,256.82h8.75v15.11h17.92v-15.1h8.41v37.41h-7.77v-15.46h-18.29v15.41h-7.94c-.84-12.29.86-24.73-1.1-37.38Z"/>
        <path class="cls-43" d="m1404.87,294.29h-8.33v-38.02c5.66.38,11.81.37,17.81,1.35,3.94.64,6.88,3.62,7.62,7.79.85,4.81-.4,9.11-4.44,12.27-.73.57-1.5,1.1-2.45,1.79,3.99,4.86,7.93,9.67,12.23,14.92-3.29,0-6.06.1-8.81-.06-.75-.04-1.64-.73-2.14-1.38-2.64-3.4-5.1-6.95-7.81-10.3-.78-.96-2.18-1.4-3.68-2.31v13.96Zm-.12-31.88v13.22c5.23.5,9.35-2.71,9.43-7.22.08-4.47-2.71-6.3-9.43-5.99Z"/>
        <path class="cls-43" d="m1354.23,256.79h7.95c0,5.13-.01,10.16,0,15.2.01,3.09-.1,6.19.15,9.26.4,4.98,3.9,8.14,8.68,8.13,4.62,0,8.82-3.37,8.9-8.01.13-7.44-.35-14.88-.56-22.33-.02-.72.09-1.44.15-2.24h7.95c-.3,9.13-.26,18.16-1,27.13-.46,5.64-7.18,10.64-13.65,10.97-2.58.13-5.32.3-7.74-.4-7.42-2.17-10.76-7.06-10.84-15.05-.03-3.74,0-7.49,0-11.24,0-3.72,0-7.45,0-11.42Z"/>
        <path class="cls-43" d="m1188.67,256.83h8.9c0,5.82,0,11.59,0,17.37,0,2.06-.03,4.12,0,6.18.08,5.07,3.4,8.69,8.18,8.96,5.08.28,8.96-2.77,9.18-7.97.31-7.3.12-14.62.08-21.94,0-.79-.4-1.57-.67-2.56h7.91c.05.71.16,1.51.16,2.3.01,6.84.03,13.68,0,20.51-.04,8.52-6.18,14.9-14.68,15.26-1.68.07-3.38.11-5.05-.03-7.6-.65-12.88-6.36-12.98-14-.04-2.62,0-5.25,0-7.87,0-2.72.13-5.44-.04-8.15-.16-2.65-.63-5.28-.98-8.06Z"/>
        <path class="cls-43" d="m1290.75,256c5.06,12.84,10.07,25.54,15.13,38.38-2.35,0-4.76.09-7.16-.06-.61-.04-1.44-.72-1.71-1.31-1.05-2.26-1.9-4.6-2.89-7.06-3.92,0-7.85-.1-11.77.08-.84.04-1.83.99-2.38,1.78-.66.95-1.16,2.14-1.31,3.28-.38,2.85-2,3.64-4.61,3.32-1.1-.14-2.23-.02-3.61-.02.15-.65.2-1.16.39-1.61,4.47-10.9,8.94-21.81,13.45-32.69,1.49-3.6,1.54-3.58,6.47-4.08Zm-3.02,11.39c-1.59,4.1-3.06,7.91-4.64,12.01h9.08c-1.53-4.14-2.91-7.87-4.44-12.01Z"/>
      </g>
    </g>
  </g>
</svg>