<?xml version="1.0" encoding="utf-8"?>
<!-- Generator: Adobe Illustrator 27.0.0, SVG Export Plug-In . SVG Version: 6.00 Build 0)  -->
<svg version="1.1" id="Capa_1" xmlns="http://www.w3.org/2000/svg" xmlns:xlink="http://www.w3.org/1999/xlink" x="0px" y="0px"
	 viewBox="0 0 413.1 47.8" style="enable-background:new 0 0 413.1 47.8;" xml:space="preserve">
<style type="text/css">
	.st0{fill:#57A532;}
	.st1{fill:#00A3CA;}
	.st2{fill:#585857;}
	.st3{fill:#1D1D1B;}
	.st4{fill:#57A42D;}
	.st5{fill:#00A2C8;}
	.st6{fill:#FFFFFF;}
</style>
<g>
	<g>
		<path class="st0" d="M54.8,0.8H47l0,0c-4.3,0-7.8,3.5-7.8,7.8v13H47c4.3,0,7.8-3.5,7.8-7.8V0.8z"/>
		<path class="st0" d="M39.2,26.8H47h0c4.3,0,7.8,3.5,7.8,7.8v13H47c-4.3,0-7.8-3.5-7.8-7.8V26.8z"/>
		<path class="st0" d="M0,47.6h7.8h0c4.3,0,7.8-3.5,7.8-7.8v-13H7.8c-4.3,0-7.8,3.5-7.8,7.8V47.6z"/>
		<path class="st0" d="M15.6,21.6H7.8h0c-4.3,0-7.8-3.5-7.8-7.8v-13h7.8c4.3,0,7.8,3.5,7.8,7.8V21.6z"/>
		<rect x="21.1" y="0.8" class="st1" width="12.6" height="20.8"/>
		<rect x="21.1" y="26.8" class="st1" width="12.6" height="20.8"/>
		<path class="st2" d="M75.3,2.4l-0.2-1.6h1.7v7c0,2.9-1.9,4.9-4.8,4.9c-4.2,0-4.3-4.2-4.3-4.4V2.4l-0.2-1.6h1.8v7.3
			c0,1.9,1.3,3.3,3,3.3c1.8,0,3-1.5,3-3.4V2.4z"/>
		<polygon class="st2" points="91.4,11.1 91.5,12.5 90.6,12.5 84,5 83.2,3.8 83.2,11.1 83.4,12.5 81.8,12.5 81.8,2.4 81.5,0.8 
			82.6,0.8 89.1,8.2 89.9,9.3 89.9,2.4 89.7,0.8 91.4,0.8 		"/>
		<polygon class="st2" points="97.9,11.1 98.1,12.5 96.3,12.5 96.3,2.4 96.1,0.8 97.9,0.8 		"/>
		<polygon class="st2" points="106.8,12.7 105.7,12.5 102.2,2.7 101.1,0.8 103.3,0.8 106.1,8.6 106.4,10.1 106.9,8.6 109.8,0.8 
			111.4,0.8 		"/>
		<polygon class="st2" points="114.6,2.4 114.4,0.8 120.5,0.8 120.5,2.1 116.2,2.1 116.2,5.8 119.9,5.8 119.6,7.1 116.2,7.1 
			116.2,11.2 120.6,11.2 120.3,12.5 114.6,12.5 		"/>
		<path class="st2" d="M127.4,6.8c1.3,0,2.5-1.1,2.5-2.5c0-1.5-1.2-2.2-2.5-2.2h-1.2v4.7H127.4z M130.9,12.5l-3.1-4.4
			c-0.2,0-0.4,0-1.5,0v3l0.2,1.3h-1.8V2.4l-0.2-1.6h3.3c2,0,3.8,1.1,3.8,3.5c0,1.4-0.9,2.7-2.3,3.3l3.6,4.8H130.9z"/>
		<path class="st2" d="M135.4,9.9c0,0,1.3,1.6,3.1,1.6c1,0,1.9-0.7,1.9-1.9c0-2.3-5.1-2.4-5.1-5.6c0-1.8,1.4-3.3,3.4-3.3
			c1.4,0,2.4,0.5,2.9,0.8l-0.5,1.3c0-0.1-1.2-0.9-2.5-0.9c-0.8,0-1.7,0.6-1.7,1.6c0,2.6,5,2.3,5,5.8c0,2-1.4,3.4-3.5,3.4
			c-2.1,0-3.2-1.3-3.2-1.3C135.3,11.4,135.4,9.9,135.4,9.9"/>
		<polygon class="st2" points="147.6,11.1 147.8,12.5 146,12.5 146,2.4 145.7,0.8 147.6,0.8 		"/>
		<path class="st2" d="M154.3,2.1v9.1h2.3c2,0,3.5-2.1,3.5-4.5c0-2.5-1.5-4.6-3.5-4.6H154.3z M161.8,6.5c0,3.3-2.1,5.9-5.4,5.9h-3.7
			V2.4l-0.2-1.6h4.4C159.3,0.8,161.8,2.6,161.8,6.5"/>
		<path class="st2" d="M166.9,8.1h3.4L168.8,4l-0.2-0.7L168.4,4L166.9,8.1z M168.2,0.8l1.1-0.2l3.6,10l0.9,2h-1.9l-1.1-3.1h-4.4
			l-1.2,3.1h-1.5L168.2,0.8z"/>
		<path class="st2" d="M178.6,2.1v9.1h2.3c2,0,3.5-2.1,3.5-4.5c0-2.5-1.5-4.6-3.5-4.6H178.6z M186.1,6.5c0,3.3-2.1,5.9-5.4,5.9H177
			V2.4l-0.2-1.6h4.4C183.7,0.8,186.1,2.6,186.1,6.5"/>
		<polygon class="st2" points="77.3,28.7 77.4,30 76.5,30 69.9,22.6 69.1,21.4 69.1,28.7 69.3,30 67.7,30 67.7,20 67.4,18.3 
			68.5,18.3 75,25.7 75.8,26.9 75.8,20 75.6,18.3 77.3,18.3 		"/>
		<path class="st2" d="M83.4,25.6h3.4l-1.5-4.1l-0.2-0.7l-0.2,0.7L83.4,25.6z M84.7,18.3l1.1-0.2l3.6,10l0.9,2h-1.9L87.2,27h-4.4
			L81.7,30h-1.5L84.7,18.3z"/>
		<path class="st2" d="M100.8,20.8c-0.8-0.9-1.8-1.4-3-1.4c-2.3,0-3.9,2.3-3.9,4.8c0,2.9,2,4.6,4,4.6c1.6,0,3.4-1.5,3.4-1.5l0.4,1.3
			c0,0-1.7,1.5-4.1,1.5c-2.8,0-5.4-2-5.4-5.8c0-3.6,2.5-6.3,5.7-6.3c1.5,0,2.7,0.5,3.7,1.5L100.8,20.8z"/>
		<polygon class="st2" points="107.2,28.7 107.3,30 105.6,30 105.6,20 105.3,18.3 107.2,18.3 		"/>
		<path class="st2" d="M116.3,29c2.1,0,3.5-2.2,3.5-4.8s-1.4-4.8-3.5-4.8c-2.1,0-3.5,2.2-3.5,4.8S114.2,29,116.3,29 M121.5,24.1
			c0,3.4-2.3,6.2-5.4,6.2c-3.3,0-5.1-2.7-5.1-6c0-3.4,2.3-6.2,5.3-6.2C119.8,18.1,121.5,20.7,121.5,24.1"/>
		<polygon class="st2" points="135,28.7 135.1,30 134.2,30 127.6,22.6 126.8,21.4 126.8,28.7 127,30 125.3,30 125.3,20 125.1,18.3 
			126.2,18.3 132.7,25.7 133.5,26.9 133.5,20 133.3,18.3 135,18.3 		"/>
		<path class="st2" d="M141,25.6h3.4l-1.5-4.1l-0.2-0.7l-0.2,0.7L141,25.6z M142.4,18.3l1.1-0.2l3.6,10l0.9,2H146l-1.1-3.1h-4.4
			l-1.2,3.1h-1.5L142.4,18.3z"/>
		<polygon class="st2" points="151.2,20 150.9,18.3 152.8,18.3 152.8,28.7 157.4,28.7 157,30 151.2,30 		"/>
		<path class="st2" d="M168.1,19.6v9.1h2.3c2,0,3.5-2.1,3.5-4.5c0-2.5-1.5-4.6-3.5-4.6H168.1z M175.6,24.1c0,3.3-2.1,5.9-5.4,5.9
			h-3.7V20l-0.2-1.6h4.4C173.2,18.3,175.6,20.1,175.6,24.1"/>
		<polygon class="st2" points="179.5,20 179.3,18.3 185.4,18.3 185.4,19.6 181.1,19.6 181.1,23.4 184.9,23.4 184.5,24.7 181.1,24.7 
			181.1,28.7 185.6,28.7 185.2,30 179.5,30 		"/>
		<polygon class="st2" points="77.7,46.1 77.9,47.6 75.4,47.6 75.4,42.6 69.8,42.6 69.8,46.1 70,47.6 67.5,47.6 67.5,37.6 
			67.2,35.7 69.8,35.7 69.8,40.6 75.4,40.6 75.4,37.6 75.1,35.7 77.7,35.7 		"/>
		<path class="st2" d="M89.3,37.6l-0.2-1.8h2.3v7.1c0,3-2,5-5.1,5c-4.6,0-4.7-4.2-4.7-4.5v-5.7l-0.2-1.8h2.6v7.4
			c0,1.8,1.1,2.9,2.7,2.9c1.5,0,2.8-1.3,2.8-3.1V37.6z"/>
		<path class="st2" d="M98,41.7c1.1,0,2.1-1,2.1-2.3c0-1.4-1-2.1-2.1-2.1h-0.8v4.4H98z M101.1,47.6l-3-4.2h-0.9v2.7l0.2,1.5h-2.5
			v-10l-0.2-1.8h3.7c2.1,0,4.2,1.2,4.2,3.7c0,1.3-0.9,2.8-2.2,3.5l3.7,4.7H101.1z"/>
		<polygon class="st2" points="106.2,37.6 106,35.7 108.5,35.7 108.5,45.8 113,45.8 112.6,47.6 106.2,47.6 		"/>
		<polygon class="st2" points="117.6,46.1 117.8,47.6 115.3,47.6 115.3,37.6 115.1,35.7 117.6,35.7 		"/>
		<polygon class="st2" points="131.6,46.1 131.7,47.6 130.3,47.6 124.3,40.9 123.6,39.7 123.6,46.1 123.8,47.6 121.5,47.6 
			121.5,37.6 121.3,35.7 123.1,35.7 128.9,42.6 129.6,43.7 129.6,37.6 129.3,35.7 131.6,35.7 		"/>
		<path class="st2" d="M143.3,38.7c-1-1-2.1-1.4-3.1-1.4c-2,0-3.5,2.1-3.5,4.5c0,2.8,1.8,4.4,3.7,4.4c0.9,0,1.8-0.2,1.8-0.2v-2.5
			l-0.3-1.5h2.6l0,5.2c0,0-2.1,0.8-4.4,0.8c-2.9,0-5.8-2-5.8-5.9c0-3.8,2.6-6.4,5.9-6.4c1.6,0,2.9,0.5,4.1,1.5L143.3,38.7z"/>
		<polygon class="st2" points="157.8,46.1 158,47.6 155.5,47.6 155.5,42.6 150,42.6 150,46.1 150.2,47.6 147.6,47.6 147.6,37.6 
			147.4,35.7 150,35.7 150,40.6 155.5,40.6 155.5,37.6 155.3,35.7 157.8,35.7 		"/>
		<path class="st2" d="M163.6,43h2.8l-1.2-3.5l-0.2-0.7l-0.2,0.7L163.6,43z M164.4,35.9l1.5-0.4l3.6,9.9l1,2.2H168l-1-2.8h-3.9
			l-1,2.8h-2.1L164.4,35.9z"/>
		<polygon class="st2" points="175.3,41.4 174.7,40.2 174.7,46.1 174.9,47.6 172.7,47.6 172.7,37.6 172.4,35.7 174.3,35.7 
			179.2,42.8 183.8,35.7 185.3,35.7 185.3,46.1 185.5,47.6 183,47.6 183,40.3 182.5,41.4 179,46.5 		"/>
	</g>
	<g>
		<g>
			<path class="st3" d="M241.7,15.7c-0.2,2.4-1.1,4.3-2.7,5.7c-1.6,1.4-3.7,2.1-6.3,2.1c-2.9,0-5.1-1-6.7-2.9
				c-1.6-1.9-2.5-4.6-2.5-7.9v-1.4c0-2.1,0.4-4,1.1-5.7c0.8-1.6,1.8-2.9,3.2-3.8c1.4-0.9,3-1.3,4.9-1.3c2.6,0,4.6,0.7,6.2,2.1
				c1.6,1.4,2.5,3.3,2.7,5.8h-4.6c-0.1-1.4-0.5-2.5-1.2-3.1c-0.7-0.6-1.7-1-3.1-1c-1.5,0-2.7,0.5-3.4,1.6c-0.8,1.1-1.2,2.8-1.2,5.1
				v1.7c0,2.4,0.4,4.2,1.1,5.3c0.7,1.1,1.9,1.7,3.5,1.7c1.4,0,2.5-0.3,3.2-1c0.7-0.6,1.1-1.7,1.2-3H241.7z"/>
		</g>
		<g>
			<path class="st3" d="M249,15.2v7.9h-4.6V0.8h8.7c1.7,0,3.1,0.3,4.4,0.9s2.2,1.5,2.9,2.6c0.7,1.1,1,2.4,1,3.8
				c0,2.2-0.7,3.9-2.2,5.2c-1.5,1.3-3.6,1.9-6.2,1.9H249z M249,11.5h4.1c1.2,0,2.1-0.3,2.8-0.9c0.6-0.6,1-1.4,1-2.4
				c0-1.1-0.3-2-1-2.6c-0.6-0.7-1.5-1-2.7-1H249V11.5z"/>
		</g>
		<g>
			<path class="st3" d="M269.2,13.4L273.1,1h3l-6.7,19.1c-1,2.8-2.7,4.1-4.9,4.1l-0.5,0L263,24v-2.3l0.8,0.1c1,0,1.7-0.2,2.2-0.6
				c0.5-0.4,1-1.1,1.3-2.1l0.6-1.7L262,1h3.1L269.2,13.4z"/>
		</g>
		<g>
			<path class="st3" d="M284.3,0.8L290,17l5.7-16.2h6v22.3h-4.6V17l0.5-10.5l-6,16.6h-3.2l-6-16.6l0.5,10.5v6.1h-4.6V0.8H284.3z"/>
			<path class="st3" d="M318.9,13.4h-8.8v6h10.3v3.7h-14.9V0.8h14.9v3.7h-10.3v5.3h8.8V13.4z"/>
		</g>
		<g>
			<path class="st3" d="M235.3,32.8v9.9c0,1.4-0.4,2.5-1.3,3.4c-0.9,0.9-2,1.4-3.5,1.5l-0.5,0c-1.6,0-2.9-0.4-3.8-1.3
				c-0.9-0.9-1.4-2.1-1.4-3.6v-10h1.9v9.9c0,1.1,0.3,1.9,0.9,2.5c0.6,0.6,1.4,0.9,2.5,0.9c1.1,0,1.9-0.3,2.5-0.9
				c0.6-0.6,0.9-1.4,0.9-2.5v-9.9H235.3z"/>
			<path class="st3" d="M252.8,47.4h-1.9l-7.4-11.3v11.3h-1.9V32.8h1.9l7.4,11.3V32.8h1.9V47.4z"/>
			<path class="st3" d="M267.5,43.6h-6.1l-1.4,3.8h-2l5.6-14.6h1.7l5.6,14.6h-2L267.5,43.6z M262,42h5l-2.5-6.8L262,42z"/>
			<path class="st3" d="M287.4,47.4h-1.9v-6.8h-7.4v6.8h-1.9V32.8h1.9v6.3h7.4v-6.3h1.9V47.4z"/>
			<path class="st3" d="M304.3,32.8v9.9c0,1.4-0.4,2.5-1.3,3.4c-0.9,0.9-2,1.4-3.5,1.5l-0.5,0c-1.6,0-2.9-0.4-3.8-1.3
				c-0.9-0.9-1.4-2.1-1.4-3.6v-10h1.9v9.9c0,1.1,0.3,1.9,0.9,2.5c0.6,0.6,1.4,0.9,2.5,0.9c1.1,0,1.9-0.3,2.5-0.9
				c0.6-0.6,0.9-1.4,0.9-2.5v-9.9H304.3z"/>
			<path class="st3" d="M316,41.5h-3.4v5.9h-1.9V32.8h4.8c1.6,0,2.9,0.4,3.8,1.1c0.9,0.7,1.3,1.8,1.3,3.3c0,0.9-0.2,1.7-0.7,2.4
				c-0.5,0.7-1.2,1.2-2.1,1.5l3.4,6.2v0.1h-2.1L316,41.5z M312.5,40h3c1,0,1.7-0.2,2.3-0.7c0.6-0.5,0.8-1.2,0.8-2
				c0-0.9-0.3-1.6-0.8-2.1s-1.3-0.7-2.3-0.7h-2.9V40z"/>
		</g>
		<g>
			<polygon class="st3" points="343,25.5 353.5,7.2 358.1,15.2 360.5,12.1 353.5,0 338.8,25.5 			"/>
			<polygon class="st3" points="366.8,23.1 363.5,24.6 374.6,43.8 332.4,43.8 340.4,29.9 336.2,29.9 326.1,47.5 380.9,47.5 			"/>
		</g>
		<rect x="224.7" y="26.6" class="st4" width="125.5" height="2.1"/>
		<polygon class="st5" points="351.3,26.8 383,0.9 370.6,0.9 351.3,25.8 		"/>
		<polygon class="st6" points="351.3,27.7 398.6,0.9 383,0.9 351.3,26.8 		"/>
		<polygon class="st5" points="398.6,0.9 351.3,27.7 351.3,28.8 351.4,28.8 413.1,0.9 		"/>
	</g>
</g>
</svg>
