<?xml version="1.0" encoding="UTF-8"?>
<svg id="Capa_1" data-name="Capa 1" xmlns="http://www.w3.org/2000/svg" viewBox="0 0 189.6 47.64">
  <defs>
    <style>
      .cls-1 {
        fill: #fff;
      }

      .cls-2 {
        fill: #57a42d;
      }

      .cls-3 {
        fill: #00a2c8;
      }

      .cls-4 {
        fill: #1d1d1b;
      }
    </style>
  </defs>
  <path class="cls-4" d="M18.17,15.67c-.17,2.4-1.06,4.29-2.66,5.66-1.6,1.38-3.7,2.07-6.31,2.07-2.86,0-5.11-.96-6.74-2.89-1.64-1.92-2.46-4.56-2.46-7.92v-1.36c0-2.14,.38-4.03,1.13-5.66,.76-1.63,1.83-2.89,3.24-3.76,1.4-.87,3.03-1.31,4.89-1.31,2.57,0,4.64,.69,6.21,2.07,1.57,1.38,2.48,3.31,2.72,5.8h-4.59c-.11-1.44-.51-2.48-1.2-3.13-.69-.65-1.74-.97-3.15-.97-1.53,0-2.68,.55-3.44,1.65-.76,1.1-1.15,2.8-1.17,5.1v1.68c0,2.41,.36,4.17,1.09,5.28,.73,1.11,1.88,1.67,3.45,1.67,1.42,0,2.48-.32,3.18-.97,.7-.65,1.1-1.65,1.2-3.01h4.59Z"/>
  <path class="cls-4" d="M25.46,15.24v7.85h-4.59V.81h8.69c1.67,0,3.15,.31,4.42,.92s2.25,1.48,2.93,2.61c.68,1.13,1.03,2.41,1.03,3.85,0,2.18-.75,3.91-2.24,5.17-1.5,1.26-3.56,1.89-6.21,1.89h-4.03Zm0-3.72h4.1c1.21,0,2.14-.29,2.78-.86,.64-.57,.96-1.39,.96-2.45s-.32-1.97-.96-2.65c-.64-.67-1.53-1.02-2.66-1.04h-4.21v7Z"/>
  <path class="cls-4" d="M45.74,13.44l3.86-12.41h3.03l-6.66,19.12c-1.03,2.76-2.67,4.13-4.91,4.13l-.54-.05-1.06-.2v-2.3l.77,.06c.96,0,1.71-.19,2.24-.58,.54-.39,.98-1.1,1.32-2.13l.63-1.68L38.52,1.02h3.09l4.13,12.41Z"/>
  <g>
    <path class="cls-4" d="M60.82,.81l5.73,16.16L72.24,.81h6.03V23.1h-4.61v-6.09l.46-10.52-6.02,16.61h-3.15l-6-16.59,.46,10.5v6.09h-4.59V.81h6Z"/>
    <path class="cls-4" d="M95.44,13.44h-8.82v5.97h10.35v3.69h-14.94V.81h14.91v3.72h-10.32v5.31h8.82v3.6Z"/>
  </g>
  <g>
    <path class="cls-4" d="M11.76,32.83v9.93c0,1.38-.44,2.51-1.3,3.38-.86,.88-2.03,1.37-3.5,1.47l-.51,.02c-1.6,0-2.87-.43-3.82-1.29-.95-.86-1.43-2.05-1.44-3.56v-9.95h1.91v9.89c0,1.06,.29,1.88,.87,2.46,.58,.59,1.41,.88,2.49,.88s1.92-.29,2.5-.87c.58-.58,.87-1.4,.87-2.46v-9.9h1.94Z"/>
    <path class="cls-4" d="M29.29,47.44h-1.94l-7.35-11.26v11.26h-1.94v-14.61h1.94l7.37,11.31v-11.31h1.92v14.61Z"/>
    <path class="cls-4" d="M44.05,43.62h-6.12l-1.37,3.82h-1.99l5.58-14.61h1.69l5.59,14.61h-1.98l-1.39-3.82Zm-5.54-1.58h4.97l-2.49-6.83-2.48,6.83Z"/>
    <path class="cls-4" d="M63.9,47.44h-1.94v-6.75h-7.36v6.75h-1.93v-14.61h1.93v6.28h7.36v-6.28h1.94v14.61Z"/>
    <path class="cls-4" d="M80.82,32.83v9.93c0,1.38-.44,2.51-1.3,3.38-.86,.88-2.03,1.37-3.5,1.47l-.51,.02c-1.6,0-2.87-.43-3.82-1.29-.95-.86-1.43-2.05-1.44-3.56v-9.95h1.91v9.89c0,1.06,.29,1.88,.87,2.46,.58,.59,1.41,.88,2.49,.88s1.92-.29,2.5-.87c.58-.58,.87-1.4,.87-2.46v-9.9h1.94Z"/>
    <path class="cls-4" d="M92.48,41.53h-3.43v5.91h-1.94v-14.61h4.84c1.65,0,2.91,.37,3.8,1.12,.89,.75,1.33,1.84,1.33,3.27,0,.91-.25,1.7-.74,2.38-.49,.68-1.18,1.18-2.05,1.52l3.43,6.2v.12h-2.07l-3.17-5.91Zm-3.43-1.58h2.96c.96,0,1.72-.25,2.28-.74,.57-.5,.85-1.16,.85-1.99,0-.9-.27-1.6-.81-2.08s-1.32-.73-2.33-.73h-2.95v5.55Z"/>
  </g>
  <g>
    <polygon class="cls-4" points="119.48 25.49 130.01 7.24 134.61 15.2 137 12.1 130.01 0 115.3 25.49 119.48 25.49"/>
    <polygon class="cls-4" points="143.32 23.05 140.01 24.55 151.14 43.84 108.89 43.84 116.92 29.92 112.74 29.92 102.61 47.46 157.41 47.46 143.32 23.05"/>
  </g>
  <rect class="cls-2" x="1.19" y="26.63" width="125.5" height="2.15"/>
  <polygon class="cls-3" points="127.83 26.79 159.47 .93 147.09 .93 127.83 25.82 127.83 26.79"/>
  <polygon class="cls-1" points="127.83 27.74 175.11 .93 159.47 .93 127.83 26.79 127.83 27.74"/>
  <polygon class="cls-3" points="175.11 .93 127.83 27.74 127.83 28.78 127.86 28.78 189.6 .93 175.11 .93"/>
</svg>